{
  "accessors": [
    {
      "bufferView": 2,
      "componentType": 5126,
      "count": 814,
      "max": [
        4.376218795776367,
        33.34976577758789,
        14.850006103515625
      ],
      "min": [
        -4.376171112060547,
        -8.97073745727539,
        -14.849983215332031
      ],
      "type": "VEC3"
    },
    {
      "bufferView": 2,
      "byteOffset": 9768,
      "componentType": 5126,
      "count": 814,
      "max": [
        1.0,
        1.0,
        1.0
      ],
      "min": [
        -1.0,
        -1.0,
        -1.0
      ],
      "type": "VEC3"
    },
    {
      "bufferView": 3,
      "componentType": 5126,
      "count": 814,
      "max": [
        1.0,
        0.9997746348381042,
        1.0,
        1.0
      ],
      "min": [
        -1.0,
        -0.9999998807907104,
        -1.0,
        1.0
      ],
      "type": "VEC4"
    },
    {
      "bufferView": 1,
      "componentType": 5126,
      "count": 814,
      "max": [
        0.6829454898834229,
        0.6163656711578369
      ],
      "min": [
        0.009145498275756836,
        0.2834196984767914
      ],
      "type": "VEC2"
    },
    {
      "bufferView": 0,
      "componentType": 5125,
      "count": 3888,
      "type": "SCALAR"
    },
    {
      "bufferView": 2,
      "byteOffset": 19536,
      "componentType": 5126,
      "count": 1102,
      "max": [
        4.8057169914245605,
        92.43821716308594,
        99.33950805664063
      ],
      "min": [
        -4.8057169914245605,
        50.27772521972656,
        68.8717041015625
      ],
      "type": "VEC3"
    },
    {
      "bufferView": 2,
      "byteOffset": 32760,
      "componentType": 5126,
      "count": 1102,
      "max": [
        1.0,
        1.0,
        1.0
      ],
      "min": [
        -1.0,
        -1.0,
        -1.0
      ],
      "type": "VEC3"
    },
    {
      "bufferView": 3,
      "byteOffset": 13024,
      "componentType": 5126,
      "count": 1102,
      "max": [
        1.0,
        1.0,
        1.0,
        1.0
      ],
      "min": [
        -0.9947953820228577,
        -0.9999687075614929,
        -1.0,
        1.0
      ],
      "type": "VEC4"
    },
    {
      "bufferView": 1,
      "byteOffset": 6512,
      "componentType": 5126,
      "count": 1102,
      "max": [
        0.7335420250892639,
        0.9942595958709717
      ],
      "min": [
        0.01176758948713541,
        0.6421021819114685
      ],
      "type": "VEC2"
    },
    {
      "bufferView": 0,
      "byteOffset": 15552,
      "componentType": 5125,
      "count": 5400,
      "type": "SCALAR"
    },
    {
      "bufferView": 2,
      "byteOffset": 45984,
      "componentType": 5126,
      "count": 2626,
      "max": [
        6.969641208648682,
        22.893211364746094,
        18.144775390625
      ],
      "min": [
        -6.969641208648682,
        -20.404983520507813,
        -18.144733428955078
      ],
      "type": "VEC3"
    },
    {
      "bufferView": 2,
      "byteOffset": 77496,
      "componentType": 5126,
      "count": 2626,
      "max": [
        1.0,
        1.0,
        1.0
      ],
      "min": [
        -1.0,
        -1.0,
        -1.0
      ],
      "type": "VEC3"
    },
    {
      "bufferView": 3,
      "byteOffset": 30656,
      "componentType": 5126,
      "count": 2626,
      "max": [
        1.0,
        1.0,
        1.0,
        1.0
      ],
      "min": [
        -1.0,
        -1.0,
        -1.0,
        1.0
      ],
      "type": "VEC4"
    },
    {
      "bufferView": 1,
      "byteOffset": 15328,
      "componentType": 5126,
      "count": 2626,
      "max": [
        0.99428391456604,
        0.7059230804443359
      ],
      "min": [
        0.013090908527374268,
        0.0031783878803253174
      ],
      "type": "VEC2"
    },
    {
      "bufferView": 0,
      "byteOffset": 37152,
      "componentType": 5125,
      "count": 13080,
      "type": "SCALAR"
    }
  ],
  "asset": {
    "extras": {
      "author": "RBG_illustrations (https://sketchfab.com/RBG_illustrations)",
      "license": "CC-BY-4.0 (http://creativecommons.org/licenses/by/4.0/)",
      "source": "https://sketchfab.com/3d-models/first-3-gravestones-ad7128e6c7d544cbae2af16ddeca6951",
      "title": "First 3 Gravestones"
    },
    "generator": "Sketchfab-12.67.0",
    "version": "2.0"
  },
  "bufferViews": [
    {
      "buffer": 0,
      "byteLength": 89472,
      "name": "floatBufferViews",
      "target": 34963
    },
    {
      "buffer": 0,
      "byteLength": 36336,
      "byteOffset": 89472,
      "byteStride": 8,
      "name": "floatBufferViews",
      "target": 34962
    },
    {
      "buffer": 0,
      "byteLength": 109008,
      "byteOffset": 125808,
      "byteStride": 12,
      "name": "floatBufferViews",
      "target": 34962
    },
    {
      "buffer": 0,
      "byteLength": 72672,
      "byteOffset": 234816,
      "byteStride": 16,
      "name": "floatBufferViews",
      "target": 34962
    }
  ],
  "buffers": [
    {
      "byteLength": 307488,
      "uri": "scene.bin"
    }
  ],
  "images": [
    {
      "uri": "textures/lambert1_baseColor.png"
    },
    {
      "uri": "textures/lambert1_metallicRoughness.png"
    },
    {
      "uri": "textures/lambert1_normal.png"
    }
  ],
  "materials": [
    {
      "doubleSided": true,
      "name": "lambert1",
      "normalTexture": {
        "index": 2
      },
      "occlusionTexture": {
        "index": 1
      },
      "pbrMetallicRoughness": {
        "baseColorTexture": {
          "index": 0
        },
        "metallicRoughnessTexture": {
          "index": 1
        }
      }
    }
  ],
  "meshes": [
    {
      "name": "Gravestone_square_L_lambert1_0",
      "primitives": [
        {
          "attributes": {
            "NORMAL": 1,
            "POSITION": 0,
            "TANGENT": 2,
            "TEXCOORD_0": 3
          },
          "indices": 4,
          "material": 0,
          "mode": 4
        }
      ]
    },
    {
      "name": "Gravestone_round_L_lambert1_0",
      "primitives": [
        {
          "attributes": {
            "NORMAL": 6,
            "POSITION": 5,
            "TANGENT": 7,
            "TEXCOORD_0": 8
          },
          "indices": 9,
          "material": 0,
          "mode": 4
        }
      ]
    },
    {
      "name": "gravestone_roof_L_lambert1_0",
      "primitives": [
        {
          "attributes": {
            "NORMAL": 11,
            "POSITION": 10,
            "TANGENT": 12,
            "TEXCOORD_0": 13
          },
          "indices": 14,
          "material": 0,
          "mode": 4
        }
      ]
    }
  ],
  "nodes": [
    {
      "children": [
        1
      ],
      "matrix": [
        1.0,
        0.0,
        0.0,
        0.0,
        0.0,
        2.220446049250313e-16,
        -1.0,
        0.0,
        0.0,
        1.0,
        2.220446049250313e-16,
        0.0,
        0.0,
        0.0,
        0.0,
        1.0
      ],
      "name": "Sketchfab_model"
    },
    {
      "children": [
        2
      ],
      "matrix": [
        1.0,
        0.0,
        0.0,
        0.0,
        0.0,
        0.0,
        1.0,
        0.0,
        0.0,
        -1.0,
        0.0,
        0.0,
        0.0,
        0.0,
        0.0,
        1.0
      ],
      "name": "first 3 Gravestones.fbx"
    },
    {
      "children": [
        3,
        5,
        7
      ],
      "name": "RootNode"
    },
    {
      "children": [
        4
      ],
      "matrix": [
        11.772127151489258,
        0.0,
        0.0,
        0.0,
        0.0,
        11.772127151489101,
        1.9179228514640913e-06,
        0.0,
        0.0,
        -1.9179228514640913e-06,
        11.772127151489101,
        0.0,
        0.8650126457214355,
        119.69117736816406,
        500.76153564453125,
        1.0
      ],
      "name": "Gravestone_square_L"
    },
    {
      "mesh": 0,
      "name": "Gravestone_square_L_lambert1_0"
    },
    {
      "children": [
        6
      ],
      "matrix": [
        11.772127151489258,
        0.0,
        0.0,
        0.0,
        0.0,
        11.772127151489101,
        1.9179228514640913e-06,
        0.0,
        0.0,
        -1.9179228514640913e-06,
        11.772127151489101,
        0.0,
        0.8652945756912231,
        -577.3057861328125,
        -1064.68310546875,
        1.0
      ],
      "name": "Gravestone_round_L"
    },
    {
      "mesh": 1,
      "name": "Gravestone_round_L_lambert1_0"
    },
    {
      "children": [
        8
      ],
      "matrix": [
        11.772127151489258,
        0.0,
        0.0,
        0.0,
        0.0,
        11.772127151489101,
        1.9179228514640913e-06,
        0.0,
        0.0,
        -1.9179228514640913e-06,
        11.772127151489101,
        0.0,
        0.8652715682983398,
        253.2498321533203,
        -641.535888671875,
        1.0
      ],
      "name": "gravestone_roof_L"
    },
    {
      "mesh": 2,
      "name": "gravestone_roof_L_lambert1_0"
    }
  ],
  "samplers": [
    {
      "magFilter": 9729,
      "minFilter": 9987,
      "wrapS": 10497,
      "wrapT": 10497
    }
  ],
  "scene": 0,
  "scenes": [
    {
      "name": "Sketchfab_Scene",
      "nodes": [
        0
      ]
    }
  ],
  "textures": [
    {
      "sampler": 0,
      "source": 0
    },
    {
      "sampler": 0,
      "source": 1
    },
    {
      "sampler": 0,
      "source": 2
    }
  ]
}
