{
  "accessors": [
    {
      "bufferView": 2,
      "componentType": 5126,
      "count": 110,
      "max": [
        2.1848208904266357,
        4.025249004364014,
        2.3151872158050537
      ],
      "min": [
        -1.6855051517486572,
        -4.025249004364014,
        -1.9687306880950928
      ],
      "type": "VEC3"
    },
    {
      "bufferView": 2,
      "byteOffset": 1320,
      "componentType": 5126,
      "count": 110,
      "max": [
        0.9045341610908508,
        0.9438638091087341,
        0.7588234543800354
      ],
      "min": [
        -0.9970795512199402,
        -0.9438638091087341,
        -1.0
      ],
      "type": "VEC3"
    },
    {
      "bufferView": 1,
      "componentType": 5126,
      "count": 110,
      "max": [
        0.9625746011734009,
        0.9790068864822388
      ],
      "min": [
        0.0,
        -1.0744834355591593e-08
      ],
      "type": "VEC2"
    },
    {
      "bufferView": 0,
      "componentType": 5125,
      "count": 264,
      "type": "SCALAR"
    },
    {
      "bufferView": 2,
      "byteOffset": 2640,
      "componentType": 5126,
      "count": 32,
      "max": [
        1.326324224472046,
        1.611843228340149,
        0.327278733253479
      ],
      "min": [
        -1.326324224472046,
        -1.6118429899215698,
        -0.32727882266044617
      ],
      "type": "VEC3"
    },
    {
      "bufferView": 2,
      "byteOffset": 3024,
      "componentType": 5126,
      "count": 32,
      "max": [
        0.699908435344696,
        0.7142326235771179,
        0.679173469543457
      ],
      "min": [
        -0.699908435344696,
        -0.7142325639724731,
        -0.679173469543457
      ],
      "type": "VEC3"
    },
    {
      "bufferView": 1,
      "byteOffset": 880,
      "componentType": 5126,
      "count": 32,
      "max": [
        0.8163827061653137,
        0.9739552140235901
      ],
      "min": [
        2.011554478542621e-09,
        0.4603007733821869
      ],
      "type": "VEC2"
    },
    {
      "bufferView": 0,
      "byteOffset": 1056,
      "componentType": 5125,
      "count": 60,
      "type": "SCALAR"
    },
    {
      "bufferView": 2,
      "byteOffset": 3408,
      "componentType": 5126,
      "count": 32,
      "max": [
        1.326324224472046,
        1.6118431091308594,
        0.327278733253479
      ],
      "min": [
        -1.326324224472046,
        -1.6118431091308594,
        -0.32727882266044617
      ],
      "type": "VEC3"
    },
    {
      "bufferView": 2,
      "byteOffset": 3792,
      "componentType": 5126,
      "count": 32,
      "max": [
        0.699908435344696,
        0.7142326235771179,
        0.679173469543457
      ],
      "min": [
        -0.699908435344696,
        -0.7142326235771179,
        -0.6791734099388123
      ],
      "type": "VEC3"
    },
    {
      "bufferView": 1,
      "byteOffset": 1136,
      "componentType": 5126,
      "count": 32,
      "max": [
        0.6666803359985352,
        0.9806097745895386
      ],
      "min": [
        0.07485087960958481,
        0.644620418548584
      ],
      "type": "VEC2"
    },
    {
      "bufferView": 0,
      "byteOffset": 1296,
      "componentType": 5125,
      "count": 60,
      "type": "SCALAR"
    },
    {
      "bufferView": 2,
      "byteOffset": 4176,
      "componentType": 5126,
      "count": 32,
      "max": [
        0.48254144191741943,
        1.611843228340149,
        1.2572414875030518
      ],
      "min": [
        -0.48254144191741943,
        -1.6118431091308594,
        -1.2572414875030518
      ],
      "type": "VEC3"
    },
    {
      "bufferView": 2,
      "byteOffset": 4560,
      "componentType": 5126,
      "count": 32,
      "max": [
        0.740475058555603,
        0.7157123684883118,
        0.6924247145652771
      ],
      "min": [
        -0.7404749989509583,
        -0.7157123684883118,
        -0.6924245953559875
      ],
      "type": "VEC3"
    },
    {
      "bufferView": 1,
      "byteOffset": 1392,
      "componentType": 5126,
      "count": 32,
      "max": [
        0.9875149726867676,
        0.9739496111869812
      ],
      "min": [
        0.5918293595314026,
        0.4603007435798645
      ],
      "type": "VEC2"
    },
    {
      "bufferView": 0,
      "byteOffset": 1536,
      "componentType": 5125,
      "count": 60,
      "type": "SCALAR"
    },
    {
      "bufferView": 2,
      "byteOffset": 4944,
      "componentType": 5126,
      "count": 32,
      "max": [
        0.48254144191741943,
        1.6118431091308594,
        1.2572414875030518
      ],
      "min": [
        -0.48254144191741943,
        -1.611843228340149,
        -1.2572414875030518
      ],
      "type": "VEC3"
    },
    {
      "bufferView": 2,
      "byteOffset": 5328,
      "componentType": 5126,
      "count": 32,
      "max": [
        0.7404749989509583,
        0.7157123684883118,
        0.6924245953559875
      ],
      "min": [
        -0.740475058555603,
        -0.7157123684883118,
        -0.6924245953559875
      ],
      "type": "VEC3"
    },
    {
      "bufferView": 1,
      "byteOffset": 1648,
      "componentType": 5126,
      "count": 32,
      "max": [
        0.9999998211860657,
        0.9657053351402283
      ],
      "min": [
        0.666680634021759,
        1.0904549263557328e-08
      ],
      "type": "VEC2"
    },
    {
      "bufferView": 0,
      "byteOffset": 1776,
      "componentType": 5125,
      "count": 60,
      "type": "SCALAR"
    }
  ],
  "asset": {
    "extras": {
      "author": "HenRi (https://sketchfab.com/HenR1)",
      "license": "CC-BY-4.0 (http://creativecommons.org/licenses/by/4.0/)",
      "source": "https://sketchfab.com/3d-models/psx-stylized-couch-eb5052ce14b1413084bf583c0ae9362d",
      "title": "PSX Stylized Couch"
    },
    "generator": "Sketchfab-15.87.0",
    "version": "2.0"
  },
  "bufferViews": [
    {
      "buffer": 0,
      "byteLength": 2016,
      "name": "floatBufferViews",
      "target": 34963
    },
    {
      "buffer": 0,
      "byteLength": 1904,
      "byteOffset": 2016,
      "byteStride": 8,
      "name": "floatBufferViews",
      "target": 34962
    },
    {
      "buffer": 0,
      "byteLength": 5712,
      "byteOffset": 3920,
      "byteStride": 12,
      "name": "floatBufferViews",
      "target": 34962
    }
  ],
  "buffers": [
    {
      "byteLength": 9632,
      "uri": "scene.bin"
    }
  ],
  "images": [
    {
      "uri": "textures/Material_baseColor.png"
    }
  ],
  "materials": [
    {
      "doubleSided": true,
      "name": "Material",
      "pbrMetallicRoughness": {
        "baseColorTexture": {
          "index": 0
        },
        "metallicFactor": 0.0,
        "roughnessFactor": 0.8211145618000169
      }
    }
  ],
  "meshes": [
    {
      "name": "Cube_Material_0",
      "primitives": [
        {
          "attributes": {
            "NORMAL": 1,
            "POSITION": 0,
            "TEXCOORD_0": 2
          },
          "indices": 3,
          "material": 0,
          "mode": 4
        }
      ]
    },
    {
      "name": "Cube.001_Material_0",
      "primitives": [
        {
          "attributes": {
            "NORMAL": 5,
            "POSITION": 4,
            "TEXCOORD_0": 6
          },
          "indices": 7,
          "material": 0,
          "mode": 4
        }
      ]
    },
    {
      "name": "Cube.002_Material_0",
      "primitives": [
        {
          "attributes": {
            "NORMAL": 9,
            "POSITION": 8,
            "TEXCOORD_0": 10
          },
          "indices": 11,
          "material": 0,
          "mode": 4
        }
      ]
    },
    {
      "name": "Cube.003_Material_0",
      "primitives": [
        {
          "attributes": {
            "NORMAL": 13,
            "POSITION": 12,
            "TEXCOORD_0": 14
          },
          "indices": 15,
          "material": 0,
          "mode": 4
        }
      ]
    },
    {
      "name": "Cube.004_Material_0",
      "primitives": [
        {
          "attributes": {
            "NORMAL": 17,
            "POSITION": 16,
            "TEXCOORD_0": 18
          },
          "indices": 19,
          "material": 0,
          "mode": 4
        }
      ]
    }
  ],
  "nodes": [
    {
      "children": [
        1
      ],
      "matrix": [
        1.0,
        0.0,
        0.0,
        0.0,
        0.0,
        2.220446049250313e-16,
        -1.0,
        0.0,
        0.0,
        1.0,
        2.220446049250313e-16,
        0.0,
        0.0,
        0.0,
        0.0,
        1.0
      ],
      "name": "Sketchfab_model"
    },
    {
      "children": [
        2
      ],
      "matrix": [
        0.009999999776482582,
        0.0,
        0.0,
        0.0,
        0.0,
        0.0,
        0.009999999776482582,
        0.0,
        0.0,
        -0.009999999776482582,
        0.0,
        0.0,
        0.0,
        0.0,
        0.0,
        1.0
      ],
      "name": "c48c3382fb964e7487a8a05e43335c77.fbx"
    },
    {
      "children": [
        3,
        5,
        7,
        9,
        11
      ],
      "name": "RootNode"
    },
    {
      "children": [
        4
      ],
      "matrix": [
        100.0,
        0.0,
        0.0,
        0.0,
        -0.0,
        -1.629206793918314e-05,
        -99.99999999999868,
        0.0,
        0.0,
        99.99999999999868,
        -1.629206793918314e-05,
        0.0,
        -99.12747955322266,
        96.87307739257813,
        -1.1920928955078125e-06,
        1.0
      ],
      "name": "Cube"
    },
    {
      "mesh": 0,
      "name": "Cube_Material_0"
    },
    {
      "children": [
        6
      ],
      "matrix": [
        100.0,
        0.0,
        0.0,
        0.0,
        -0.0,
        -1.629206793918314e-05,
        -99.99999999999868,
        0.0,
        0.0,
        99.99999999999868,
        -1.629206793918314e-05,
        0.0,
        -12.821090698242188,
        50.66622543334961,
        158.2991485595703,
        1.0
      ],
      "name": "Cube.001"
    },
    {
      "mesh": 1,
      "name": "Cube.001_Material_0"
    },
    {
      "children": [
        8
      ],
      "matrix": [
        100.0,
        0.0,
        0.0,
        0.0,
        -0.0,
        -1.629206793918314e-05,
        -99.99999999999868,
        0.0,
        0.0,
        99.99999999999868,
        -1.629206793918314e-05,
        0.0,
        -12.821090698242188,
        50.66622543334961,
        -164.599609375,
        1.0
      ],
      "name": "Cube.002"
    },
    {
      "mesh": 2,
      "name": "Cube.002_Material_0"
    },
    {
      "children": [
        10
      ],
      "matrix": [
        100.0,
        0.0,
        0.0,
        0.0,
        -0.0,
        -1.629206793918314e-05,
        -99.99999999999868,
        0.0,
        0.0,
        99.99999999999868,
        -1.629206793918314e-05,
        0.0,
        -125.74083709716797,
        209.03463745117188,
        158.29916381835938,
        1.0
      ],
      "name": "Cube.003"
    },
    {
      "mesh": 3,
      "name": "Cube.003_Material_0"
    },
    {
      "children": [
        12
      ],
      "matrix": [
        100.0,
        0.0,
        0.0,
        0.0,
        -0.0,
        -1.629206793918314e-05,
        -99.99999999999868,
        0.0,
        0.0,
        99.99999999999868,
        -1.629206793918314e-05,
        0.0,
        -125.74083709716797,
        209.03463745117188,
        -164.25718688964844,
        1.0
      ],
      "name": "Cube.004"
    },
    {
      "mesh": 4,
      "name": "Cube.004_Material_0"
    }
  ],
  "samplers": [
    {
      "magFilter": 9728,
      "minFilter": 9728,
      "wrapS": 10497,
      "wrapT": 10497
    }
  ],
  "scene": 0,
  "scenes": [
    {
      "name": "Sketchfab_Scene",
      "nodes": [
        0
      ]
    }
  ],
  "textures": [
    {
      "sampler": 0,
      "source": 0
    }
  ]
}
