{
  "accessors": [
    {
      "bufferView": 2,
      "componentType": 5126,
      "count": 5240,
      "max": [
        0.759863018989563,
        0.3214449882507324,
        3.9118549823760986
      ],
      "min": [
        -0.759863018989563,
        -0.398593008518219,
        0.0010160000529140234
      ],
      "type": "VEC3"
    },
    {
      "bufferView": 2,
      "byteOffset": 62880,
      "componentType": 5126,
      "count": 5240,
      "max": [
        0.99904465675354,
        1.0,
        0.9999412298202515
      ],
      "min": [
        -0.99904465675354,
        -1.0,
        -1.0
      ],
      "type": "VEC3"
    },
    {
      "bufferView": 1,
      "componentType": 5126,
      "count": 5240,
      "max": [
        0.9960939884185791,
        0.9913769960403442
      ],
      "min": [
        0.0039059999398887157,
        0.0039059999398887157
      ],
      "type": "VEC2"
    },
    {
      "bufferView": 0,
      "componentType": 5125,
      "count": 7944,
      "type": "SCALAR"
    },
    {
      "bufferView": 2,
      "byteOffset": 125760,
      "componentType": 5126,
      "count": 240,
      "max": [
        -0.9154549837112427,
        0.05489800125360489,
        2.4984920024871826
      ],
      "min": [
        -1.4627710580825806,
        -0.12719500064849854,
        -0.0859140008687973
      ],
      "type": "VEC3"
    },
    {
      "bufferView": 2,
      "byteOffset": 128640,
      "componentType": 5126,
      "count": 240,
      "max": [
        0.9999763369560242,
        0.9999874234199524,
        1.0
      ],
      "min": [
        -0.9999763369560242,
        -0.9999874234199524,
        -0.9702985882759094
      ],
      "type": "VEC3"
    },
    {
      "bufferView": 1,
      "byteOffset": 41920,
      "componentType": 5126,
      "count": 240,
      "max": [
        0.6093990206718445,
        0.7717409729957581
      ],
      "min": [
        0.4785589873790741,
        0.1539209932088852
      ],
      "type": "VEC2"
    },
    {
      "bufferView": 0,
      "byteOffset": 31776,
      "componentType": 5125,
      "count": 378,
      "type": "SCALAR"
    }
  ],
  "asset": {
    "extras": {
      "author": "Moustache_Cat (https://sketchfab.com/moustachecat)",
      "license": "CC-BY-4.0 (http://creativecommons.org/licenses/by/4.0/)",
      "source": "https://sketchfab.com/3d-models/armadura-medieval-no-estilo-de-ps1-89e23ef8fc6047d3bfbb7bf15d48d02e",
      "title": "Armadura Medieval No Estilo De PS1"
    },
    "generator": "Sketchfab-13.12.0",
    "version": "2.0"
  },
  "bufferViews": [
    {
      "buffer": 0,
      "byteLength": 33288,
      "name": "floatBufferViews",
      "target": 34963
    },
    {
      "buffer": 0,
      "byteLength": 43840,
      "byteOffset": 33288,
      "byteStride": 8,
      "name": "floatBufferViews",
      "target": 34962
    },
    {
      "buffer": 0,
      "byteLength": 131520,
      "byteOffset": 77128,
      "byteStride": 12,
      "name": "floatBufferViews",
      "target": 34962
    }
  ],
  "buffers": [
    {
      "byteLength": 208648,
      "uri": "scene.bin"
    }
  ],
  "images": [
    {
      "uri": "textures/Material_baseColor.png"
    },
    {
      "uri": "textures/Material_metallicRoughness.png"
    },
    {
      "uri": "textures/Material.001_baseColor.png"
    },
    {
      "uri": "textures/Material.001_metallicRoughness.png"
    }
  ],
  "materials": [
    {
      "doubleSided": true,
      "name": "Material",
      "pbrMetallicRoughness": {
        "baseColorTexture": {
          "index": 0
        },
        "metallicFactor": 0.7177164730406796,
        "metallicRoughnessTexture": {
          "index": 1
        }
      }
    },
    {
      "doubleSided": true,
      "name": "Material.001",
      "pbrMetallicRoughness": {
        "baseColorTexture": {
          "index": 2
        },
        "metallicRoughnessTexture": {
          "index": 3
        }
      }
    }
  ],
  "meshes": [
    {
      "name": "Object_0",
      "primitives": [
        {
          "attributes": {
            "NORMAL": 1,
            "POSITION": 0,
            "TEXCOORD_0": 2
          },
          "indices": 3,
          "material": 0,
          "mode": 4
        }
      ]
    },
    {
      "name": "Object_1",
      "primitives": [
        {
          "attributes": {
            "NORMAL": 5,
            "POSITION": 4,
            "TEXCOORD_0": 6
          },
          "indices": 7,
          "material": 1,
          "mode": 4
        }
      ]
    }
  ],
  "nodes": [
    {
      "children": [
        1
      ],
      "matrix": [
        1.0,
        0.0,
        0.0,
        0.0,
        0.0,
        2.220446049250313e-16,
        -1.0,
        0.0,
        0.0,
        1.0,
        2.220446049250313e-16,
        0.0,
        0.0,
        0.0,
        0.0,
        1.0
      ],
      "name": "Sketchfab_model"
    },
    {
      "children": [
        2,
        3
      ],
      "name": "d72c640f1de9473ba01b620ccdfa8e10.obj.cleaner.materialmerger.gles"
    },
    {
      "mesh": 0,
      "name": "Object_2"
    },
    {
      "mesh": 1,
      "name": "Object_3"
    }
  ],
  "samplers": [
    {
      "magFilter": 9728,
      "minFilter": 9728,
      "wrapS": 10497,
      "wrapT": 10497
    }
  ],
  "scene": 0,
  "scenes": [
    {
      "name": "Sketchfab_Scene",
      "nodes": [
        0
      ]
    }
  ],
  "textures": [
    {
      "sampler": 0,
      "source": 0
    },
    {
      "sampler": 0,
      "source": 1
    },
    {
      "sampler": 0,
      "source": 2
    },
    {
      "sampler": 0,
      "source": 3
    }
  ]
}
