{
  "accessors": [
    {
      "bufferView": 2,
      "componentType": 5126,
      "count": 4806,
      "max": [
        0.5597482323646545,
        0.13624250888824463,
        1.7092864513397217
      ],
      "min": [
        -0.43551644682884216,
        -0.4556847810745239,
        -0.015623039565980434
      ],
      "type": "VEC3"
    },
    {
      "bufferView": 2,
      "byteOffset": 57672,
      "componentType": 5126,
      "count": 4806,
      "max": [
        0.9984391927719116,
        0.9980893135070801,
        0.995637834072113
      ],
      "min": [
        -0.9977774024009705,
        -0.9968180060386658,
        -0.9996960163116455
      ],
      "type": "VEC3"
    },
    {
      "bufferView": 1,
      "componentType": 5126,
      "count": 4806,
      "max": [
        0.594891369342804,
        0.964031994342804
      ],
      "min": [
        0.030774042010307312,
        0.656193733215332
      ],
      "type": "VEC2"
    },
    {
      "bufferView": 0,
      "componentType": 5125,
      "count": 6714,
      "type": "SCALAR"
    }
  ],
  "asset": {
    "extras": {
      "author": "MadGamesmith (https://sketchfab.com/madgamesmith)",
      "license": "CC-BY-4.0 (http://creativecommons.org/licenses/by/4.0/)",
      "source": "https://sketchfab.com/3d-models/mad-zombie-3ae800207d764fcebb16db191ca35eca",
      "title": "Mad Zombie!"
    },
    "generator": "Sketchfab-12.65.0",
    "version": "2.0"
  },
  "bufferViews": [
    {
      "buffer": 0,
      "byteLength": 26856,
      "name": "floatBufferViews",
      "target": 34963
    },
    {
      "buffer": 0,
      "byteLength": 38448,
      "byteOffset": 26856,
      "byteStride": 8,
      "name": "floatBufferViews",
      "target": 34962
    },
    {
      "buffer": 0,
      "byteLength": 115344,
      "byteOffset": 65304,
      "byteStride": 12,
      "name": "floatBufferViews",
      "target": 34962
    }
  ],
  "buffers": [
    {
      "byteLength": 180648,
      "uri": "scene.bin"
    }
  ],
  "images": [
    {
      "uri": "textures/ZombieTexture_baseColor.png"
    }
  ],
  "materials": [
    {
      "doubleSided": true,
      "name": "ZombieTexture",
      "pbrMetallicRoughness": {
        "baseColorTexture": {
          "index": 0
        },
        "metallicFactor": 0.0,
        "roughnessFactor": 0.0
      }
    }
  ],
  "meshes": [
    {
      "name": "Zombie_09_ZombieTexture_0",
      "primitives": [
        {
          "attributes": {
            "NORMAL": 1,
            "POSITION": 0,
            "TEXCOORD_0": 2
          },
          "indices": 3,
          "material": 0,
          "mode": 4
        }
      ]
    }
  ],
  "nodes": [
    {
      "children": [
        1
      ],
      "matrix": [
        -1.0,
        6.290011496532519e-32,
        -2.832769343193999e-16,
        0.0,
        -2.832769343193999e-16,
        -2.220446049250313e-16,
        1.0,
        0.0,
        0.0,
        1.0,
        2.220446049250313e-16,
        0.0,
        -12.42323112487793,
        -2.213196459889376e-06,
        -31.94450569152832,
        1.0
      ],
      "name": "Sketchfab_model"
    },
    {
      "children": [
        2
      ],
      "matrix": [
        1.0,
        0.0,
        0.0,
        0.0,
        0.0,
        0.0,
        1.0,
        0.0,
        0.0,
        -1.0,
        0.0,
        0.0,
        0.0,
        0.0,
        0.0,
        1.0
      ],
      "name": "ZombieForExport.fbx"
    },
    {
      "children": [
        3
      ],
      "name": "RootNode"
    },
    {
      "children": [
        4
      ],
      "matrix": [
        -99.9999999999996,
        8.742277980456486e-06,
        -9.065899513581183e-20,
        0.0,
        1.4242977804451913e-12,
        1.6292067994694293e-05,
        99.99999999999865,
        0.0,
        8.74227798045637e-06,
        99.99999999999828,
        -1.6292067983592062e-05,
        0.0,
        0.0,
        0.0,
        0.0,
        1.0
      ],
      "name": "Zombie_09"
    },
    {
      "mesh": 0,
      "name": "Zombie_09_ZombieTexture_0"
    }
  ],
  "samplers": [
    {
      "magFilter": 9729,
      "minFilter": 9987,
      "wrapS": 10497,
      "wrapT": 10497
    }
  ],
  "scene": 0,
  "scenes": [
    {
      "name": "Sketchfab_Scene",
      "nodes": [
        0
      ]
    }
  ],
  "textures": [
    {
      "sampler": 0,
      "source": 0
    }
  ]
}
