{
  "accessors": [
    {
      "bufferView": 3,
      "componentType": 5126,
      "count": 1275,
      "max": [
        0.8908868432044983,
        1.7006404399871826,
        0.14642433822155
      ],
      "min": [
        -0.8908868432044983,
        -0.0005661593750119209,
        -0.20036345720291138
      ],
      "type": "VEC3"
    },
    {
      "bufferView": 3,
      "byteOffset": 15300,
      "componentType": 5126,
      "count": 1275,
      "max": [
        0.9999983310699463,
        0.9935194849967957,
        0.999998152256012
      ],
      "min": [
        -0.9999983310699463,
        -0.9997456669807434,
        -1.0
      ],
      "type": "VEC3"
    },
    {
      "bufferView": 2,
      "componentType": 5126,
      "count": 1275,
      "max": [
        0.9955508708953857,
        0.9952313899993896
      ],
      "min": [
        0.00511785876005888,
        0.002847805619239807
      ],
      "type": "VEC2"
    },
    {
      "bufferView": 1,
      "componentType": 5125,
      "count": 4788,
      "type": "SCALAR"
    },
    {
      "bufferView": 5,
      "componentType": 5126,
      "count": 28,
      "max": [
        1.0,
        0.9780564308166504,
        0.3462689518928528,
        0.0,
        0.9785937666893005,
        1.0,
        0.9999997019767761,
        0.0,
        0.953040361404419,
        0.8957251906394958,
        1.0000001192092896,
        0.0,
        1.4381035566329956,
        1.1042921543121338,
        1.1145621538162231,
        1.0
      ],
      "min": [
        -0.22358718514442444,
        -0.9780559539794922,
        -0.3462689518928528,
        0.0,
        -0.9785937070846558,
        -0.9999355673789978,
        -0.8957210779190063,
        0.0,
        -0.9530404210090637,
        -0.36291828751564026,
        -0.9999414682388306,
        0.0,
        -1.4381036758422852,
        -1.5629709959030151,
        -1.4083706140518188,
        1.0
      ],
      "type": "MAT4"
    },
    {
      "bufferView": 0,
      "componentType": 5123,
      "count": 1275,
      "type": "VEC4"
    },
    {
      "bufferView": 4,
      "componentType": 5126,
      "count": 1275,
      "max": [
        1.0,
        0.5,
        0.0,
        0.0
      ],
      "min": [
        0.5,
        0.0,
        0.0,
        0.0
      ],
      "type": "VEC4"
    }
  ],
  "asset": {
    "extras": {
      "author": "vinrax (https://sketchfab.com/vinrax)",
      "license": "CC-BY-4.0 (http://creativecommons.org/licenses/by/4.0/)",
      "source": "https://sketchfab.com/3d-models/skeleton-character-psx-ece576bbed4b4364911c7596d828a558",
      "title": "Skeleton Character PSX"
    },
    "generator": "Sketchfab-15.73.0",
    "version": "2.0"
  },
  "bufferViews": [
    {
      "buffer": 0,
      "byteLength": 10200,
      "byteStride": 8,
      "name": "shortBufferViews",
      "target": 34962
    },
    {
      "buffer": 0,
      "byteLength": 19152,
      "byteOffset": 10200,
      "name": "floatBufferViews",
      "target": 34963
    },
    {
      "buffer": 0,
      "byteLength": 10200,
      "byteOffset": 29352,
      "byteStride": 8,
      "name": "floatBufferViews",
      "target": 34962
    },
    {
      "buffer": 0,
      "byteLength": 30600,
      "byteOffset": 39552,
      "byteStride": 12,
      "name": "floatBufferViews",
      "target": 34962
    },
    {
      "buffer": 0,
      "byteLength": 20400,
      "byteOffset": 70152,
      "byteStride": 16,
      "name": "floatBufferViews",
      "target": 34962
    },
    {
      "buffer": 0,
      "byteLength": 1792,
      "byteOffset": 90552,
      "name": "floatBufferViews"
    }
  ],
  "buffers": [
    {
      "byteLength": 92344,
      "uri": "e.bin"
    }
  ],
  "extensionsUsed": [
    "KHR_materials_unlit"
  ],
  "images": [
    {
      "uri": "textures/skeleton_baseColor.png"
    }
  ],
  "materials": [
    {
      "alphaMode": "BLEND",
      "doubleSided": true,
      "extensions": {
        "KHR_materials_unlit": {}
      },
      "name": "skeleton",
      "pbrMetallicRoughness": {
        "baseColorTexture": {
          "index": 0
        },
        "metallicFactor": 0.0
      }
    }
  ],
  "meshes": [
    {
      "name": "skeleton_skeleton_0",
      "primitives": [
        {
          "attributes": {
            "JOINTS_0": 5,
            "NORMAL": 1,
            "POSITION": 0,
            "TEXCOORD_0": 2,
            "WEIGHTS_0": 6
          },
          "indices": 3,
          "material": 0,
          "mode": 4
        }
      ]
    }
  ],
  "nodes": [
    {
      "children": [
        1
      ],
      "matrix": [
        1.0,
        0.0,
        0.0,
        0.0,
        0.0,
        2.220446049250313e-16,
        -1.0,
        0.0,
        0.0,
        1.0,
        2.220446049250313e-16,
        0.0,
        0.0,
        0.0,
        0.0,
        1.0
      ],
      "name": "Sketchfab_model"
    },
    {
      "children": [
        2
      ],
      "matrix": [
        1.0,
        0.0,
        0.0,
        0.0,
        0.0,
        0.0,
        1.0,
        0.0,
        0.0,
        -1.0,
        0.0,
        0.0,
        0.0,
        0.0,
        0.0,
        1.0
      ],
      "name": "skeleton.fbx"
    },
    {
      "children": [
        3
      ],
      "name": "RootNode"
    },
    {
      "children": [
        4
      ],
      "matrix": [
        1.0,
        0.0,
        0.0,
        0.0,
        0.0,
        -1.6292067939183141e-07,
        -0.9999999999999868,
        0.0,
        0.0,
        0.9999999999999868,
        -1.6292067939183141e-07,
        0.0,
        0.0,
        0.0,
        0.0,
        1.0
      ],
      "name": "rig"
    },
    {
      "children": [
        5,
        34,
        33
      ],
      "name": "Object_4"
    },
    {
      "children": [
        6
      ],
      "name": "_rootJoint"
    },
    {
      "children": [
        7,
        23,
        28
      ],
      "name": "hips_00",
      "rotation": [
        0.7797908782958984,
        7.462979567662842e-08,
        9.29583308106885e-08,
        0.6260401010513306
      ],
      "scale": [
        1.0,
        1.0,
        0.9999999403953552
      ],
      "translation": [
        0.0,
        0.0484342984855175,
        0.8861194849014282
      ]
    },
    {
      "children": [
        8
      ],
      "name": "spine_01",
      "rotation": [
        -0.23134282231330872,
        1.2945713599688772e-14,
        -5.515642698128431e-08,
        0.9728723168373108
      ],
      "scale": [
        1.0,
        1.0,
        0.9999999403953552
      ],
      "translation": [
        -8.881784197001252e-16,
        0.13246499001979828,
        3.725290298461914e-09
      ]
    },
    {
      "children": [
        9,
        13,
        18
      ],
      "name": "chest_02",
      "rotation": [
        0.11474113911390305,
        -1.4864113629178832e-14,
        2.735641935203148e-08,
        0.9933954477310181
      ],
      "translation": [
        3.552713678800501e-15,
        0.13292740285396576,
        -1.1175870895385742e-08
      ]
    },
    {
      "children": [
        10
      ],
      "name": "neck_03",
      "rotation": [
        0.13969610631465912,
        -3.0635792568154546e-15,
        3.330614362084816e-08,
        0.9901944398880005
      ],
      "scale": [
        1.0,
        1.0,
        0.9999999403953552
      ],
      "translation": [
        8.881784197001252e-16,
        0.31073638796806335,
        -3.725290298461914e-09
      ]
    },
    {
      "children": [
        11
      ],
      "name": "head_04",
      "rotation": [
        -0.1302536278963089,
        -5.835521681759465e-15,
        -3.105488133314793e-08,
        0.9914807081222534
      ],
      "translation": [
        -5.3290705182007514e-15,
        0.111805759370327,
        -9.313225746154785e-09
      ]
    },
    {
      "children": [
        12
      ],
      "name": "jaw_05",
      "rotation": [
        0.9238796234130859,
        9.159618626997188e-15,
        2.202700670750346e-07,
        0.38268348574638367
      ],
      "scale": [
        1.0,
        0.9999999403953552,
        0.9999998211860657
      ],
      "translation": [
        -8.79103989603891e-09,
        0.005995511543005705,
        0.036872297525405884
      ]
    },
    {
      "name": "jaw_end_022",
      "rotation": [
        -0.0,
        -1.9852334701272664e-23,
        -1.3234889800848443e-23,
        1.0
      ],
      "translation": [
        -5.293955920339377e-23,
        0.10318776965141296,
        0.0
      ]
    },
    {
      "children": [
        14
      ],
      "name": "shoulder.L_06",
      "rotation": [
        -0.5654407739639282,
        -0.4133670926094055,
        -0.4215521812438965,
        0.5759325623512268
      ],
      "scale": [
        1.0,
        0.9999998211860657,
        1.0
      ],
      "translation": [
        0.016057003289461136,
        0.26257839798927307,
        0.08172760158777237
      ]
    },
    {
      "children": [
        15
      ],
      "name": "upper_arm.L_07",
      "rotation": [
        -0.08090759068727493,
        0.7443098425865173,
        -0.039451200515031815,
        0.6617404222488403
      ],
      "scale": [
        1.0,
        0.9999997615814209,
        1.0
      ],
      "translation": [
        0.0016978917410597205,
        0.16241616010665894,
        0.003998318687081337
      ]
    },
    {
      "children": [
        16
      ],
      "name": "forearm.L_08",
      "rotation": [
        0.1706211417913437,
        -0.05665592849254608,
        -0.014452185481786728,
        0.983600378036499
      ],
      "scale": [
        1.0,
        0.9999998211860657,
        0.9999999403953552
      ],
      "translation": [
        -3.259629011154175e-09,
        0.31926608085632324,
        1.4901161193847656e-08
      ]
    },
    {
      "children": [
        17
      ],
      "name": "hand.L_09",
      "rotation": [
        -0.019205329939723015,
        0.011463657952845097,
        -0.009211438708007336,
        0.9997074007987976
      ],
      "scale": [
        0.9999998807907104,
        1.0,
        1.0
      ],
      "translation": [
        -1.3969838619232178e-08,
        0.26767951250076294,
        -9.313225746154785e-09
      ]
    },
    {
      "name": "hand.L_end_023",
      "rotation": [
        1.3877787807814457e-17,
        6.938893903907228e-18,
        3.686287386450715e-18,
        1.0
      ],
      "translation": [
        0.0,
        0.07033572345972061,
        2.7755575615628914e-17
      ]
    },
    {
      "children": [
        19
      ],
      "name": "shoulder.R_010",
      "rotation": [
        -0.5654408931732178,
        0.4133668839931488,
        0.4215519428253174,
        0.5759326219558716
      ],
      "scale": [
        0.9999999403953552,
        0.9999998807907104,
        1.0
      ],
      "translation": [
        -0.01605704426765442,
        0.26257839798927307,
        0.08172758668661118
      ]
    },
    {
      "children": [
        20
      ],
      "name": "upper_arm.R_011",
      "rotation": [
        -0.08090761303901672,
        -0.7443098425865173,
        0.039451178163290024,
        0.6617404222488403
      ],
      "translation": [
        -0.0016978884814307094,
        0.16241614520549774,
        0.003998443949967623
      ]
    },
    {
      "children": [
        21
      ],
      "name": "forearm.R_012",
      "rotation": [
        0.17062118649482727,
        0.05665595084428787,
        0.014452164061367512,
        0.983600378036499
      ],
      "scale": [
        1.0,
        1.0000001192092896,
        0.9999998807907104
      ],
      "translation": [
        -2.2351741790771484e-07,
        0.31926611065864563,
        -1.4901161193847656e-08
      ]
    },
    {
      "children": [
        22
      ],
      "name": "hand.R_013",
      "rotation": [
        -0.01920531876385212,
        -0.011463655158877373,
        0.009211465716362,
        0.9997074007987976
      ],
      "scale": [
        0.9999998807907104,
        0.9999999403953552,
        1.0
      ],
      "translation": [
        1.2200325727462769e-07,
        0.2676794230937958,
        -1.6763806343078613e-08
      ]
    },
    {
      "name": "hand.R_end_024",
      "rotation": [
        -6.770847460736376e-35,
        -3.469446951953614e-18,
        -1.951563910473908e-17,
        1.0
      ],
      "translation": [
        -2.220446049250313e-16,
        0.07033572345972061,
        0.0
      ]
    },
    {
      "children": [
        24
      ],
      "name": "thigh.L_014",
      "rotation": [
        0.9934388995170593,
        -3.9071395008249965e-09,
        1.1730702453860431e-07,
        0.1143643781542778
      ],
      "scale": [
        1.0,
        0.9999998807907104,
        0.9999939799308777
      ],
      "translation": [
        0.11642256379127502,
        0.06131783872842789,
        0.02488880604505539
      ]
    },
    {
      "children": [
        25
      ],
      "name": "shin.L_015",
      "rotation": [
        0.04137936979532242,
        4.051233237767349e-10,
        9.782019638748807e-09,
        0.9991436004638672
      ],
      "scale": [
        1.0,
        1.0,
        0.9999999403953552
      ],
      "translation": [
        -4.916278495414872e-09,
        0.43073898553848267,
        -2.4759955197239947e-10
      ]
    },
    {
      "children": [
        26
      ],
      "name": "foot.L_016",
      "rotation": [
        -0.5569703578948975,
        9.900723796363309e-08,
        -6.639606908720452e-08,
        0.8305323719978333
      ],
      "scale": [
        1.0,
        1.0,
        0.9999999403953552
      ],
      "translation": [
        -7.450580596923828e-09,
        0.449235200881958,
        -2.3285242622961277e-09
      ]
    },
    {
      "children": [
        27
      ],
      "name": "toe.L_017",
      "rotation": [
        1.1778861441769095e-08,
        0.973581075668335,
        -0.22834168374538422,
        1.972281467033099e-07
      ],
      "scale": [
        1.0,
        1.0000001192092896,
        0.9999999403953552
      ],
      "translation": [
        1.7159285103929278e-09,
        0.1270260214805603,
        1.214552014516812e-09
      ]
    },
    {
      "name": "toe.L_end_025",
      "rotation": [
        0.0,
        -8.889081895256666e-24,
        8.271806125530277e-25,
        1.0
      ],
      "translation": [
        0.0,
        0.058963507413864136,
        8.673617379884035e-19
      ]
    },
    {
      "children": [
        29
      ],
      "name": "thigh.R_018",
      "rotation": [
        0.9934388995170593,
        -3.907140389003416e-09,
        1.1730703164403167e-07,
        0.1143643781542778
      ],
      "scale": [
        1.0,
        0.9999998807907104,
        0.9999940991401672
      ],
      "translation": [
        -0.11642257869243622,
        0.06131783872842789,
        0.024888748303055763
      ]
    },
    {
      "children": [
        30
      ],
      "name": "shin.R_019",
      "rotation": [
        0.04137936979532242,
        4.0512326826558365e-10,
        9.782018750570387e-09,
        0.9991436004638672
      ],
      "scale": [
        1.0,
        1.0000001192092896,
        1.0
      ],
      "translation": [
        2.5343012133305365e-09,
        0.4307389557361603,
        7.132558432765279e-10
      ]
    },
    {
      "children": [
        31
      ],
      "name": "foot.R_020",
      "rotation": [
        -0.5569703578948975,
        -9.900723085820573e-08,
        6.639606908720452e-08,
        0.8305323719978333
      ],
      "translation": [
        7.450580596923828e-09,
        0.449235200881958,
        9.315354043692992e-10
      ]
    },
    {
      "children": [
        32
      ],
      "name": "toe.R_021",
      "rotation": [
        -1.1778867659018033e-08,
        0.973581075668335,
        -0.22834168374538422,
        -1.972281467033099e-07
      ],
      "scale": [
        1.0,
        0.9999999403953552,
        0.9999999403953552
      ],
      "translation": [
        -1.7159267340360884e-09,
        0.1270260065793991,
        4.939984421525878e-09
      ]
    },
    {
      "name": "toe.R_end_026",
      "rotation": [
        2.6469779601696886e-23,
        -1.7900304702190512e-23,
        4.1359030627651384e-25,
        1.0
      ],
      "translation": [
        1.3877787807814457e-17,
        0.058963507413864136,
        8.673617379884035e-19
      ]
    },
    {
      "matrix": [
        1.0000000000000568,
        2.519512207102125e-16,
        -2.3037327343110195e-15,
        0.0,
        -2.3037327250203147e-15,
        -1.1929176277885939e-14,
        -0.9999999959671664,
        0.0,
        -2.5195121969413536e-16,
        0.9999999959671149,
        -1.1929176277885325e-14,
        0.0,
        0.0,
        1.6035347938370137e-08,
        7.250058275953819e-09,
        1.0
      ],
      "name": "Object_33"
    },
    {
      "mesh": 0,
      "name": "Object_34",
      "skin": 0
    }
  ],
  "samplers": [
    {
      "magFilter": 9728,
      "minFilter": 9728,
      "wrapS": 10497,
      "wrapT": 10497
    }
  ],
  "scene": 0,
  "scenes": [
    {
      "name": "Sketchfab_Scene",
      "nodes": [
        0
      ]
    }
  ],
  "skins": [
    {
      "inverseBindMatrices": 4,
      "joints": [
        5,
        6,
        7,
        8,
        9,
        10,
        11,
        12,
        13,
        14,
        15,
        16,
        17,
        18,
        19,
        20,
        21,
        22,
        23,
        24,
        25,
        26,
        27,
        28,
        29,
        30,
        31,
        32
      ],
      "skeleton": 5
    }
  ],
  "textures": [
    {
      "sampler": 0,
      "source": 0
    }
  ]
}
