{
  "accessors": [
    {
      "bufferView": 3,
      "componentType": 5126,
      "count": 235,
      "max": [
        5.410440444946289,
        -1.0467010736465454,
        2.1061978340148926
      ],
      "min": [
        2.4646284580230713,
        -2.6101040840148926,
        0.39859843254089355
      ],
      "type": "VEC3"
    },
    {
      "bufferView": 3,
      "byteOffset": 2820,
      "componentType": 5126,
      "count": 235,
      "max": [
        0.9750614166259766,
        0.9999897480010986,
        0.9718553423881531
      ],
      "min": [
        -0.9808324575424194,
        -1.0,
        -0.9718553423881531
      ],
      "type": "VEC3"
    },
    {
      "bufferView": 2,
      "componentType": 5126,
      "count": 235,
      "max": [
        0.4178120791912079,
        0.8002975583076477
      ],
      "min": [
        0.15303033590316772,
        0.1494511514902115
      ],
      "type": "VEC2"
    },
    {
      "bufferView": 1,
      "componentType": 5125,
      "count": 354,
      "type": "SCALAR"
    },
    {
      "bufferView": 3,
      "byteOffset": 5640,
      "componentType": 5126,
      "count": 8,
      "max": [
        9.214512825012207,
        -1.4267617464065552,
        2.703179359436035
      ],
      "min": [
        5.125491619110107,
        -2.2665257453918457,
        1.7119967937469482
      ],
      "type": "VEC3"
    },
    {
      "bufferView": 3,
      "byteOffset": 5736,
      "componentType": 5126,
      "count": 8,
      "max": [
        0.23557859659194946,
        4.0353148733629496e-07,
        -0.9718552827835083
      ],
      "min": [
        0.23557856678962708,
        -5.649437753163511e-07,
        -0.9718552827835083
      ],
      "type": "VEC3"
    },
    {
      "bufferView": 2,
      "byteOffset": 1880,
      "componentType": 5126,
      "count": 8,
      "max": [
        1.0137066841125488,
        0.6921185255050659
      ],
      "min": [
        0.416335791349411,
        0.2995488941669464
      ],
      "type": "VEC2"
    },
    {
      "bufferView": 1,
      "byteOffset": 1416,
      "componentType": 5125,
      "count": 12,
      "type": "SCALAR"
    },
    {
      "bufferView": 3,
      "byteOffset": 5832,
      "componentType": 5126,
      "count": 374,
      "max": [
        1.1630909442901611,
        2.565394639968872,
        5.673684597015381
      ],
      "min": [
        -0.963231086730957,
        -6.4861297607421875,
        -5.673684597015381
      ],
      "type": "VEC3"
    },
    {
      "bufferView": 3,
      "byteOffset": 10320,
      "componentType": 5126,
      "count": 374,
      "max": [
        0.999569833278656,
        0.9999123215675354,
        0.9999563694000244
      ],
      "min": [
        -0.9994961619377136,
        -0.9999847412109375,
        -0.9999563694000244
      ],
      "type": "VEC3"
    },
    {
      "bufferView": 2,
      "byteOffset": 1944,
      "componentType": 5126,
      "count": 374,
      "max": [
        0.9776920080184937,
        0.9997460246086121
      ],
      "min": [
        0.0002539746055845171,
        0.0002539746055845171
      ],
      "type": "VEC2"
    },
    {
      "bufferView": 1,
      "byteOffset": 1464,
      "componentType": 5125,
      "count": 1587,
      "type": "SCALAR"
    },
    {
      "bufferView": 5,
      "componentType": 5126,
      "count": 2,
      "max": [
        1.0,
        0.968196451663971,
        0.0,
        0.0,
        0.0,
        1.0,
        0.00914845336228609,
        0.0,
        0.011897356249392033,
        0.24989557266235352,
        1.0,
        0.0,
        0.0,
        0.0,
        0.0,
        1.0
      ],
      "min": [
        0.009486117400228977,
        0.0,
        -0.2500114142894745,
        0.0,
        -0.9998842477798462,
        0.012158933095633984,
        0.0,
        0.0,
        0.0,
        0.0,
        0.9681996703147888,
        0.0,
        -1.9613072872161865,
        -4.014236927032471,
        -0.17260122299194336,
        1.0
      ],
      "type": "MAT4"
    },
    {
      "bufferView": 5,
      "byteOffset": 128,
      "componentType": 5126,
      "count": 22,
      "max": [
        1.0,
        0.9847161173820496,
        0.9999998807907104,
        0.0,
        0.9999998807907104,
        1.0,
        1.0,
        0.0,
        0.002443971810862422,
        0.9999997615814209,
        1.0,
        0.0,
        0.6361362338066101,
        1.9091053009033203,
        4.343214988708496,
        1.0
      ],
      "min": [
        -0.11536141484975815,
        -0.04094921052455902,
        -0.9991744160652161,
        0.0,
        -0.9998778700828552,
        -0.9991745352745056,
        -0.9998579025268555,
        0.0,
        -1.0000200271606445,
        -1.0,
        -0.3435814380645752,
        0.0,
        -0.6727612018585205,
        -4.673755645751953,
        -6.051982402801514,
        1.0
      ],
      "type": "MAT4"
    },
    {
      "bufferView": 0,
      "componentType": 5123,
      "count": 235,
      "type": "VEC4"
    },
    {
      "bufferView": 4,
      "componentType": 5126,
      "count": 235,
      "max": [
        1.0,
        0.0,
        1.929587985375273e-42,
        0.0
      ],
      "min": [
        0.375797301530838,
        -1.3402764797210693,
        0.0,
        0.0
      ],
      "type": "VEC4"
    },
    {
      "bufferView": 0,
      "byteOffset": 1880,
      "componentType": 5123,
      "count": 8,
      "type": "VEC4"
    },
    {
      "bufferView": 4,
      "byteOffset": 3760,
      "componentType": 5126,
      "count": 8,
      "max": [
        1.0,
        0.0,
        0.0,
        0.0
      ],
      "min": [
        1.0,
        0.0,
        0.0,
        0.0
      ],
      "type": "VEC4"
    },
    {
      "bufferView": 0,
      "byteOffset": 1944,
      "componentType": 5123,
      "count": 374,
      "type": "VEC4"
    },
    {
      "bufferView": 4,
      "byteOffset": 3888,
      "componentType": 5126,
      "count": 374,
      "max": [
        1.0,
        0.49488314986228943,
        0.2808007299900055,
        0.06691917032003403
      ],
      "min": [
        0.3730144798755646,
        0.0,
        0.0,
        0.0
      ],
      "type": "VEC4"
    }
  ],
  "asset": {
    "extras": {
      "author": "Madeleinone (https://sketchfab.com/Madeleinone)",
      "license": "CC-BY-4.0 (http://creativecommons.org/licenses/by/4.0/)",
      "source": "https://sketchfab.com/3d-models/chainsaw-butcher-b38b2f65e0cc460a86a6c98dcae6c59c",
      "title": "Chainsaw butcher"
    },
    "generator": "Sketchfab-12.67.0",
    "version": "2.0"
  },
  "bufferViews": [
    {
      "buffer": 0,
      "byteLength": 4936,
      "byteStride": 8,
      "name": "shortBufferViews",
      "target": 34962
    },
    {
      "buffer": 0,
      "byteLength": 7812,
      "byteOffset": 4936,
      "name": "floatBufferViews",
      "target": 34963
    },
    {
      "buffer": 0,
      "byteLength": 4936,
      "byteOffset": 12748,
      "byteStride": 8,
      "name": "floatBufferViews",
      "target": 34962
    },
    {
      "buffer": 0,
      "byteLength": 14808,
      "byteOffset": 17684,
      "byteStride": 12,
      "name": "floatBufferViews",
      "target": 34962
    },
    {
      "buffer": 0,
      "byteLength": 9872,
      "byteOffset": 32492,
      "byteStride": 16,
      "name": "floatBufferViews",
      "target": 34962
    },
    {
      "buffer": 0,
      "byteLength": 1536,
      "byteOffset": 42364,
      "name": "floatBufferViews"
    }
  ],
  "buffers": [
    {
      "byteLength": 43900,
      "uri": "scene.bin"
    }
  ],
  "extensionsUsed": [
    "KHR_materials_unlit"
  ],
  "images": [
    {
      "uri": "textures/Material.003_baseColor.png"
    },
    {
      "uri": "textures/Material.001_baseColor.png"
    }
  ],
  "materials": [
    {
      "doubleSided": true,
      "extensions": {
        "KHR_materials_unlit": {}
      },
      "name": "Material.003",
      "pbrMetallicRoughness": {
        "baseColorTexture": {
          "index": 0
        },
        "metallicFactor": 0.0
      }
    },
    {
      "doubleSided": true,
      "extensions": {
        "KHR_materials_unlit": {}
      },
      "name": "Material.002",
      "pbrMetallicRoughness": {
        "baseColorTexture": {
          "index": 0
        },
        "metallicFactor": 0.0
      }
    },
    {
      "doubleSided": true,
      "extensions": {
        "KHR_materials_unlit": {}
      },
      "name": "Material.001",
      "pbrMetallicRoughness": {
        "baseColorTexture": {
          "index": 1
        },
        "metallicFactor": 0.0
      }
    }
  ],
  "meshes": [
    {
      "name": "Object_0",
      "primitives": [
        {
          "attributes": {
            "JOINTS_0": 14,
            "NORMAL": 1,
            "POSITION": 0,
            "TEXCOORD_0": 2,
            "WEIGHTS_0": 15
          },
          "indices": 3,
          "material": 0,
          "mode": 4
        }
      ]
    },
    {
      "name": "Object_1",
      "primitives": [
        {
          "attributes": {
            "JOINTS_0": 16,
            "NORMAL": 5,
            "POSITION": 4,
            "TEXCOORD_0": 6,
            "WEIGHTS_0": 17
          },
          "indices": 7,
          "material": 1,
          "mode": 4
        }
      ]
    },
    {
      "name": "Object_2",
      "primitives": [
        {
          "attributes": {
            "JOINTS_0": 18,
            "NORMAL": 9,
            "POSITION": 8,
            "TEXCOORD_0": 10,
            "WEIGHTS_0": 19
          },
          "indices": 11,
          "material": 2,
          "mode": 4
        }
      ]
    }
  ],
  "nodes": [
    {
      "children": [
        1
      ],
      "matrix": [
        1.0,
        0.0,
        0.0,
        0.0,
        0.0,
        2.220446049250313e-16,
        -1.0,
        0.0,
        0.0,
        1.0,
        2.220446049250313e-16,
        0.0,
        0.0,
        0.0,
        0.0,
        1.0
      ],
      "name": "Sketchfab_model"
    },
    {
      "children": [
        2
      ],
      "name": "root"
    },
    {
      "children": [
        3,
        10
      ],
      "matrix": [
        1.0,
        0.0,
        0.0,
        0.0,
        0.0,
        2.220446049250313e-16,
        1.0,
        0.0,
        0.0,
        -1.0,
        2.220446049250313e-16,
        0.0,
        0.0,
        0.0,
        0.0,
        1.0
      ],
      "name": "GLTF_SceneRootNode"
    },
    {
      "children": [
        4
      ],
      "matrix": [
        -0.08405048894990141,
        -0.99646149715244,
        0.0,
        0.0,
        0.99646149715244,
        -0.08405048894990141,
        0.0,
        0.0,
        0.0,
        -0.0,
        1.0,
        0.0,
        3.862022638320923,
        -1.9106923341751099,
        1.193587303161621,
        1.0
      ],
      "name": "Armature.001_2"
    },
    {
      "children": [
        5,
        7,
        8,
        6
      ],
      "name": "GLTF_created_0"
    },
    {
      "children": [
        9
      ],
      "name": "GLTF_created_0_rootJoint"
    },
    {
      "name": "Cube_1"
    },
    {
      "mesh": 0,
      "name": "Object_7",
      "skin": 0
    },
    {
      "mesh": 1,
      "name": "Object_8",
      "skin": 0
    },
    {
      "name": "Bone_0",
      "rotation": [
        -0.24957001209259033,
        0.03376948460936546,
        0.2389087826013565,
        0.9378150701522827
      ],
      "scale": [
        0.9999998211860657,
        0.9999998211860657,
        1.0
      ],
      "translation": [
        -0.4426440894603729,
        -0.7116690874099731,
        -0.523784339427948
      ]
    },
    {
      "children": [
        11
      ],
      "matrix": [
        1.0,
        0.0,
        0.0,
        0.0,
        0.0,
        1.0,
        0.0,
        0.0,
        0.0,
        0.0,
        1.0,
        0.0,
        0.0,
        1.3838567733764648,
        0.0,
        1.0
      ],
      "name": "Armature_25"
    },
    {
      "children": [
        12,
        14,
        13
      ],
      "name": "GLTF_created_1"
    },
    {
      "children": [
        15
      ],
      "name": "GLTF_created_1_rootJoint"
    },
    {
      "name": "Cylinder_24"
    },
    {
      "mesh": 2,
      "name": "Object_14",
      "skin": 1
    },
    {
      "children": [
        16,
        19,
        22
      ],
      "name": "Bone_23",
      "translation": [
        0.0,
        -3.292962074279785,
        0.0
      ]
    },
    {
      "children": [
        17
      ],
      "name": "Bone.003_5",
      "rotation": [
        -0.6790773272514343,
        -0.1288444846868515,
        0.7086819410324097,
        0.1415029615163803
      ],
      "scale": [
        0.9999824166297913,
        0.9999973773956299,
        0.9999998211860657
      ],
      "translation": [
        -0.09357167035341263,
        -0.11170363426208496,
        -0.6727465987205505
      ]
    },
    {
      "children": [
        18
      ],
      "name": "Bone.004_4",
      "rotation": [
        0.28329306840896606,
        0.025708114728331566,
        -0.004120220430195332,
        0.9586799144744873
      ],
      "scale": [
        1.0000001192092896,
        1.0,
        1.0000001192092896
      ],
      "translation": [
        -1.0133260452960258e-08,
        2.102599859237671,
        2.1242774650431784e-08
      ]
    },
    {
      "name": "Bone.005_3",
      "rotation": [
        -0.7859653234481812,
        -0.16105015575885773,
        0.18160462379455566,
        0.5686308741569519
      ],
      "translation": [
        1.0602937550174829e-07,
        2.0860774517059326,
        -4.414553700371471e-07
      ]
    },
    {
      "children": [
        20
      ],
      "name": "Bone.006_8",
      "rotation": [
        0.6751828193664551,
        0.006865513511002064,
        -0.6788831949234009,
        0.28844186663627625
      ],
      "scale": [
        0.9999832510948181,
        0.9999966621398926,
        0.9999997615814209
      ],
      "translation": [
        -0.09357167035341263,
        -0.11170363426208496,
        0.6361234188079834
      ]
    },
    {
      "children": [
        21
      ],
      "name": "Bone.007_7",
      "rotation": [
        0.23802833259105682,
        -0.03213340789079666,
        5.120359219290549e-06,
        0.970726490020752
      ],
      "scale": [
        1.0000001192092896,
        1.0,
        1.0
      ],
      "translation": [
        1.6868067120867636e-07,
        2.102600574493408,
        3.2665870008941056e-08
      ]
    },
    {
      "name": "Bone.008_6",
      "rotation": [
        -0.6101303696632385,
        0.16735178232192993,
        -0.17756175994873047,
        0.7537944912910461
      ],
      "scale": [
        0.9999999403953552,
        1.0,
        0.9999999403953552
      ],
      "translation": [
        5.421972559815913e-08,
        2.0860774517059326,
        2.552503133301798e-07
      ]
    },
    {
      "children": [
        23,
        29,
        35
      ],
      "name": "Bone.001_22",
      "rotation": [
        -0.03734670951962471,
        -0.01801428012549877,
        -0.22249919176101685,
        0.9740508198738098
      ],
      "scale": [
        1.0,
        1.0,
        0.9999999403953552
      ],
      "translation": [
        0.0,
        1.0,
        0.0
      ]
    },
    {
      "children": [
        24
      ],
      "name": "Bone.009_14",
      "rotation": [
        -0.8781797289848328,
        -0.3525499701499939,
        -0.2983061969280243,
        0.12458910793066025
      ],
      "scale": [
        1.0,
        1.0,
        1.0000001192092896
      ],
      "translation": [
        0.3856896162033081,
        1.6769068241119385,
        -1.0399019718170166
      ]
    },
    {
      "children": [
        25
      ],
      "name": "Bone.010_13",
      "rotation": [
        0.2653908133506775,
        -0.07889792323112488,
        -0.5333461165428162,
        0.7993026971817017
      ],
      "scale": [
        1.0,
        1.0000001192092896,
        1.0
      ],
      "translation": [
        4.470348358154297e-08,
        1.3666056394577026,
        -1.407397718367065e-07
      ]
    },
    {
      "children": [
        26,
        27
      ],
      "name": "Bone.011_12",
      "rotation": [
        -0.3590828478336334,
        -2.3612688693219752e-08,
        3.1929172195077626e-08,
        0.9333056807518005
      ],
      "scale": [
        0.9999999403953552,
        1.0,
        1.0
      ],
      "translation": [
        2.384185791015625e-07,
        1.3950583934783936,
        -9.34119981366166e-08
      ]
    },
    {
      "name": "Bone.012_9",
      "rotation": [
        -0.8552395701408386,
        -8.595282707801744e-08,
        6.46440412310767e-08,
        0.5182328224182129
      ],
      "translation": [
        1.4901161193847656e-08,
        1.0178508758544922,
        7.450580596923828e-09
      ]
    },
    {
      "children": [
        28
      ],
      "name": "Bone.013_11",
      "rotation": [
        0.07642456144094467,
        0.7136425971984863,
        -0.6753952503204346,
        0.16945460438728333
      ],
      "scale": [
        1.0,
        1.0,
        0.9999998807907104
      ],
      "translation": [
        0.3969449996948242,
        0.24961796402931213,
        -0.05603285878896713
      ]
    },
    {
      "name": "Bone.014_10",
      "rotation": [
        -0.014235256239771843,
        -0.01103655993938446,
        -0.5667551755905151,
        0.823689341545105
      ],
      "scale": [
        0.9999999403953552,
        0.9999999403953552,
        0.9999998807907104
      ],
      "translation": [
        -7.078051567077637e-08,
        0.3506580591201782,
        4.237517714500427e-07
      ]
    },
    {
      "children": [
        30
      ],
      "name": "Bone.015_20",
      "rotation": [
        0.9298152923583984,
        0.22478774189949036,
        -0.27807897329330444,
        0.0870991125702858
      ],
      "scale": [
        0.9999999403953552,
        1.0,
        1.0
      ],
      "translation": [
        0.21825776994228363,
        1.4429714679718018,
        1.0181151628494263
      ]
    },
    {
      "children": [
        31
      ],
      "name": "Bone.016_19",
      "rotation": [
        0.06243603676557541,
        0.6761525869369507,
        -0.47718775272369385,
        0.5578631162643433
      ],
      "scale": [
        1.0,
        1.0000001192092896,
        0.9999999403953552
      ],
      "translation": [
        2.249726627212567e-09,
        1.366605520248413,
        -2.8067162816114433e-08
      ]
    },
    {
      "children": [
        32,
        33
      ],
      "name": "Bone.017_18",
      "rotation": [
        0.07860688120126724,
        -0.6788942813873291,
        -0.04995083063840866,
        0.7283051609992981
      ],
      "scale": [
        0.9999999403953552,
        0.9999997019767761,
        0.9999998807907104
      ],
      "translation": [
        -5.052931584259568e-08,
        1.3950583934783936,
        -1.2620505174254504e-07
      ]
    },
    {
      "name": "Bone.018_15",
      "rotation": [
        0.7024236917495728,
        0.45275193452835083,
        -0.037883210927248,
        0.5478882789611816
      ],
      "scale": [
        0.9999999403953552,
        0.9999999403953552,
        1.0
      ],
      "translation": [
        1.3715103497347059e-09,
        1.0178502798080444,
        3.028029311735736e-07
      ]
    },
    {
      "children": [
        34
      ],
      "name": "Bone.019_17",
      "rotation": [
        0.0006905372720211744,
        -0.9168435335159302,
        -0.3636070489883423,
        0.1648857742547989
      ],
      "scale": [
        1.0000001192092896,
        0.9999999403953552,
        0.9999998211860657
      ],
      "translation": [
        0.39694374799728394,
        0.24961750209331512,
        0.05604248866438866
      ]
    },
    {
      "name": "Bone.020_16",
      "rotation": [
        0.033289823681116104,
        -0.2926362454891205,
        -0.5754434466362,
        0.7629683017730713
      ],
      "scale": [
        0.9999998807907104,
        0.9999998807907104,
        0.9999998211860657
      ],
      "translation": [
        5.517204471061632e-08,
        0.3506576418876648,
        -1.017963313643122e-06
      ]
    },
    {
      "name": "Bone.002_21",
      "rotation": [
        0.04429716244339943,
        -0.05336747318506241,
        0.23894482851028442,
        0.9685530662536621
      ],
      "translation": [
        0.0,
        2.189011812210083,
        0.0
      ]
    }
  ],
  "samplers": [
    {
      "magFilter": 9728,
      "minFilter": 9986,
      "wrapS": 10497,
      "wrapT": 10497
    }
  ],
  "scene": 0,
  "scenes": [
    {
      "name": "Sketchfab_Scene",
      "nodes": [
        0
      ]
    }
  ],
  "skins": [
    {
      "inverseBindMatrices": 12,
      "joints": [
        5,
        9
      ],
      "skeleton": 5
    },
    {
      "inverseBindMatrices": 13,
      "joints": [
        12,
        15,
        16,
        17,
        18,
        19,
        20,
        21,
        22,
        23,
        24,
        25,
        26,
        27,
        28,
        29,
        30,
        31,
        32,
        33,
        34,
        35
      ],
      "skeleton": 12
    }
  ],
  "textures": [
    {
      "sampler": 0,
      "source": 0
    },
    {
      "sampler": 0,
      "source": 1
    }
  ]
}
